<svg id="Layer_1" data-name="Layer 1" xmlns="http://www.w3.org/2000/svg" viewBox="0 0 1309.66 402.38"><defs><style>.cls-1{fill:#deb79a;}.cls-2{fill:#392f24;}</style></defs><path class="cls-1" d="M562.57,641.75,563,637h-.23l-1.7,4.31-8.17,14.17H551.8l-8.65-14.22L541.53,637h-.22l.63,4.67v21.12h-3.5V631.44h2.78l9.82,16,1.48,3.5h.09L554,647.4l9.37-16h2.92v31.39h-3.72Z" transform="translate(-305.34 -261.06)"/><path class="cls-1" d="M591.94,631.44h3.59v20.94a14.29,14.29,0,0,1-.74,4.89,8.55,8.55,0,0,1-2.11,3.39,8.45,8.45,0,0,1-3.29,2,13.7,13.7,0,0,1-4.26.63q-5.57,0-8.39-2.52c-1.88-1.67-2.83-4.21-2.83-7.62V631.44h3.73v19.91a14.54,14.54,0,0,0,.47,4,6.29,6.29,0,0,0,1.41,2.64,5.43,5.43,0,0,0,2.35,1.46,11,11,0,0,0,3.3.45c2.42,0,4.16-.67,5.2-2s1.57-3.52,1.57-6.57Z" transform="translate(-305.34 -261.06)"/><path class="cls-1" d="M617.33,654.85a4.27,4.27,0,0,0-1.12-3.07,11.11,11.11,0,0,0-2.81-2.11,37.6,37.6,0,0,0-3.65-1.73,20.27,20.27,0,0,1-3.66-2,10.29,10.29,0,0,1-2.8-2.82,7.58,7.58,0,0,1-1.12-4.29,7.22,7.22,0,0,1,2.56-5.83q2.55-2.14,7.26-2.15a28.07,28.07,0,0,1,5,.4,13.69,13.69,0,0,1,3.5,1l-1.12,3.32a14.82,14.82,0,0,0-3-1,19.93,19.93,0,0,0-4.51-.46,6.51,6.51,0,0,0-4.44,1.32,4.17,4.17,0,0,0-.36,6,11.49,11.49,0,0,0,2.81,2.09c1.12.61,2.34,1.22,3.65,1.82a21.71,21.71,0,0,1,3.66,2.08,11,11,0,0,1,2.8,2.85,7.2,7.2,0,0,1,1.12,4.13,8.84,8.84,0,0,1-.72,3.63,7.6,7.6,0,0,1-2.1,2.78,9.61,9.61,0,0,1-3.37,1.79,14.69,14.69,0,0,1-4.48.63,25.12,25.12,0,0,1-5.56-.51,15.2,15.2,0,0,1-3.41-1.15l1.25-3.32a14.82,14.82,0,0,0,3.05,1.12,17.59,17.59,0,0,0,4.53.54,12.29,12.29,0,0,0,2.78-.29,6.36,6.36,0,0,0,2.25-.94,5,5,0,0,0,1.5-1.64A4.67,4.67,0,0,0,617.33,654.85Z" transform="translate(-305.34 -261.06)"/><path class="cls-1" d="M627.82,631.44h3.73v31.39h-3.73Z" transform="translate(-305.34 -261.06)"/><path class="cls-1" d="M660.12,661.53a8.1,8.1,0,0,1-3.41,1.44,22.85,22.85,0,0,1-4.4.4,14.45,14.45,0,0,1-5.29-1,11.71,11.71,0,0,1-4.31-2.94,14.31,14.31,0,0,1-2.91-5.05,22,22,0,0,1-1.08-7.29,20.8,20.8,0,0,1,1.19-7.46,14.25,14.25,0,0,1,3.14-5,12,12,0,0,1,4.37-2.84,14.1,14.1,0,0,1,4.94-.9,27.39,27.39,0,0,1,4.39.29,13.76,13.76,0,0,1,2.92.79l-.9,3.31a14.15,14.15,0,0,0-6.14-1.07,10.28,10.28,0,0,0-3.64.67,8.33,8.33,0,0,0-3.2,2.2,11.11,11.11,0,0,0-2.27,4,18.61,18.61,0,0,0-.85,6,17.88,17.88,0,0,0,.81,5.66,11.64,11.64,0,0,0,2.22,4,9,9,0,0,0,3.32,2.43,10.66,10.66,0,0,0,4.15.8,13.7,13.7,0,0,0,3.52-.4,9.73,9.73,0,0,0,2.53-1Z" transform="translate(-305.34 -261.06)"/><path class="cls-1" d="M666.49,631.44h3.72v31.39h-3.72Z" transform="translate(-305.34 -261.06)"/><path class="cls-1" d="M693.59,654.13H682.08l-3.13,8.7h-3.72l11.89-31.89h1.7l11.93,31.89h-4Zm-10.31-3.23h9.2L689,641.35l-1.11-4.76h0l-1.11,4.85Z" transform="translate(-305.34 -261.06)"/><path class="cls-1" d="M710.57,642.29l-2.42-4.53H708l.45,4.53v20.54h-3.5V630.94h2l15,20.95,2.33,4.31h.23l-.5-4.31V631.44h3.5v31.89h-2Z" transform="translate(-305.34 -261.06)"/><path class="cls-1" d="M917.51,661.53A8.1,8.1,0,0,1,914.1,663a22.85,22.85,0,0,1-4.4.4,14.49,14.49,0,0,1-5.29-1,11.59,11.59,0,0,1-4.3-2.94,14.18,14.18,0,0,1-2.92-5.05,22,22,0,0,1-1.08-7.29,20.8,20.8,0,0,1,1.19-7.46,14.25,14.25,0,0,1,3.14-5,11.94,11.94,0,0,1,4.38-2.84,14,14,0,0,1,4.93-.9,27.39,27.39,0,0,1,4.39.29,13.76,13.76,0,0,1,2.92.79l-.9,3.31a14.15,14.15,0,0,0-6.14-1.07,10.28,10.28,0,0,0-3.64.67,8.33,8.33,0,0,0-3.2,2.2,11.26,11.26,0,0,0-2.27,4,18.61,18.61,0,0,0-.85,6,17.88,17.88,0,0,0,.81,5.66,11.64,11.64,0,0,0,2.22,4,9.06,9.06,0,0,0,3.32,2.43,10.66,10.66,0,0,0,4.15.8,13.64,13.64,0,0,0,3.52-.4,9.73,9.73,0,0,0,2.53-1Z" transform="translate(-305.34 -261.06)"/><path class="cls-1" d="M920.56,647.13q0-7.85,3.32-12t9.46-4.19a13.21,13.21,0,0,1,5.74,1.16,10.77,10.77,0,0,1,4,3.3,14.49,14.49,0,0,1,2.35,5.11,26.85,26.85,0,0,1,.76,6.66q0,7.86-3.34,12t-9.53,4.19a13,13,0,0,1-5.67-1.16,10.83,10.83,0,0,1-4-3.3,14.3,14.3,0,0,1-2.36-5.12A26.74,26.74,0,0,1,920.56,647.13Zm4,0a23.1,23.1,0,0,0,.51,4.94,13.54,13.54,0,0,0,1.59,4.1,8.5,8.5,0,0,0,2.76,2.83,7.35,7.35,0,0,0,4,1,7.74,7.74,0,0,0,6.55-3.16q2.37-3.17,2.38-9.76a23.16,23.16,0,0,0-.52-4.91,13,13,0,0,0-1.61-4.12,8.75,8.75,0,0,0-2.78-2.83,7.46,7.46,0,0,0-4-1,7.63,7.63,0,0,0-6.48,3.16Q924.5,640.55,924.51,647.13Z" transform="translate(-305.34 -261.06)"/><path class="cls-1" d="M976.67,641.75l.45-4.71h-.23l-1.7,4.31L967,655.52H965.9l-8.65-14.22L955.63,637h-.22l.63,4.67v21.12h-3.5V631.44h2.78l9.82,16,1.48,3.5h.09l1.39-3.59,9.38-16h2.91v31.39h-3.72Z" transform="translate(-305.34 -261.06)"/><path class="cls-1" d="M988,631.75a22.76,22.76,0,0,1,3.68-.54c1.32-.09,2.62-.13,3.9-.13a22.44,22.44,0,0,1,4.2.4,11.37,11.37,0,0,1,3.88,1.48,8.52,8.52,0,0,1,2.85,3,9.47,9.47,0,0,1,1.09,4.8,10.38,10.38,0,0,1-1,4.85,9.16,9.16,0,0,1-2.73,3.2,11.19,11.19,0,0,1-3.9,1.77,19,19,0,0,1-4.53.54h-.75c-.34,0-.7,0-1.07,0l-1.1-.07a7.58,7.58,0,0,1-.76-.09v11.93H988Zm7.67,2.56c-.77,0-1.52,0-2.24,0a7.49,7.49,0,0,0-1.7.23v13a2.44,2.44,0,0,0,.72.12l1,0c.36,0,.7,0,1,0h.72a15.38,15.38,0,0,0,3-.29,7.79,7.79,0,0,0,2.72-1.05,5.69,5.69,0,0,0,1.95-2.16,7.5,7.5,0,0,0,.74-3.54,6.12,6.12,0,0,0-.7-3.07,5.45,5.45,0,0,0-1.84-2,7.59,7.59,0,0,0-2.58-1.06A13.28,13.28,0,0,0,995.68,634.31Z" transform="translate(-305.34 -261.06)"/><path class="cls-1" d="M1011,647.13q0-7.85,3.32-12t9.47-4.19a13.24,13.24,0,0,1,5.74,1.16,10.81,10.81,0,0,1,4,3.3,14.5,14.5,0,0,1,2.36,5.11,27.33,27.33,0,0,1,.76,6.66q0,7.86-3.34,12t-9.53,4.19a13,13,0,0,1-5.68-1.16,10.83,10.83,0,0,1-4-3.3,14.29,14.29,0,0,1-2.35-5.12A26.72,26.72,0,0,1,1011,647.13Zm4,0a22.47,22.47,0,0,0,.52,4.94,13.28,13.28,0,0,0,1.59,4.1,8.5,8.5,0,0,0,2.76,2.83,7.33,7.33,0,0,0,4,1,7.71,7.71,0,0,0,6.54-3.16q2.39-3.17,2.38-9.76a23.16,23.16,0,0,0-.51-4.91,13.24,13.24,0,0,0-1.62-4.12,8.65,8.65,0,0,0-2.78-2.83,7.42,7.42,0,0,0-4-1,7.6,7.6,0,0,0-6.48,3.16Q1015,640.55,1015,647.13Z" transform="translate(-305.34 -261.06)"/><path class="cls-1" d="M1057.17,654.85a4.27,4.27,0,0,0-1.12-3.07,11.05,11.05,0,0,0-2.8-2.11,36.72,36.72,0,0,0-3.66-1.73,20.18,20.18,0,0,1-3.65-2,10.16,10.16,0,0,1-2.8-2.82,7.58,7.58,0,0,1-1.13-4.29,7.25,7.25,0,0,1,2.56-5.83q2.57-2.14,7.27-2.15a28.23,28.23,0,0,1,5,.4,13.6,13.6,0,0,1,3.49,1l-1.12,3.32a14.7,14.7,0,0,0-3-1,20.05,20.05,0,0,0-4.51-.46,6.49,6.49,0,0,0-4.44,1.32,4.17,4.17,0,0,0-.36,6,11.43,11.43,0,0,0,2.8,2.09c1.12.61,2.34,1.22,3.66,1.82a22,22,0,0,1,3.65,2.08,11,11,0,0,1,2.81,2.85,7.27,7.27,0,0,1,1.12,4.13,8.84,8.84,0,0,1-.72,3.63,7.62,7.62,0,0,1-2.11,2.78,9.65,9.65,0,0,1-3.36,1.79,14.76,14.76,0,0,1-4.49.63,25.24,25.24,0,0,1-5.56-.51,15.56,15.56,0,0,1-3.41-1.15l1.26-3.32a14.6,14.6,0,0,0,3,1.12,17.48,17.48,0,0,0,4.53.54,12.35,12.35,0,0,0,2.78-.29,6.31,6.31,0,0,0,2.24-.94,4.81,4.81,0,0,0,1.5-1.64A4.57,4.57,0,0,0,1057.17,654.85Z" transform="translate(-305.34 -261.06)"/><path class="cls-1" d="M1066.82,631.44h17.09v3.32h-13.37V645h12.24v3.32h-12.24v11.16h13.59v3.32h-17.31Z" transform="translate(-305.34 -261.06)"/><path class="cls-1" d="M1090.86,631.75a39.06,39.06,0,0,1,3.92-.49c1.48-.12,2.84-.18,4.06-.18a16.66,16.66,0,0,1,3.93.45A9.05,9.05,0,0,1,1106,633a7.56,7.56,0,0,1,2.27,2.69,8.83,8.83,0,0,1,.85,4,8.67,8.67,0,0,1-2,6,9.82,9.82,0,0,1-5.11,3l2.15,1.66,7.8,12.42h-4.35L1099,649.29l-4.4-.67v14.21h-3.72Zm8.07,2.56h-1.21c-.42,0-.82,0-1.21,0l-1.1.09a4.57,4.57,0,0,0-.83.14v11.57h3.5a8.21,8.21,0,0,0,5.11-1.53,5.55,5.55,0,0,0,2-4.75,5.22,5.22,0,0,0-1.66-4A6.44,6.44,0,0,0,1098.93,634.31Z" transform="translate(-305.34 -261.06)"/><ellipse class="cls-1" cx="666.54" cy="318.59" rx="642.09" ry="2.16"/><path class="cls-1" d="M645.26,305.24a31.54,31.54,0,0,0-5.39,1.53,68.41,68.41,0,0,0-10.43,5c-3.1,1.76-6.09,3.7-9.06,5.68s-6,3.95-8.93,6q-6,4.17-11.79,8.75c-15.26,12.11-29,26.33-39.27,43a117,117,0,0,0-11.9,26c-3.38,10.65-4.81,21.82-5.61,32.93-1.51,20.93-.11,41.87.94,62.79a296,296,0,0,0-32.13,21.41c-4.36,3.38-8.56,6.93-12.66,10.63-3.2,2.88-6.41,5.78-9.56,8.73a191,191,0,0,0-19.85,21.26,91.56,91.56,0,0,0-7.91,11.79,53.74,53.74,0,0,0-5,12.12,33.91,33.91,0,0,0-1,12.12,24.92,24.92,0,0,0,3.36,10.46,17,17,0,0,0,6.5,6,22.81,22.81,0,0,0,8.53,2.35,38.76,38.76,0,0,0,9.8-.39A63.13,63.13,0,0,0,494,610.87a80.36,80.36,0,0,0,20-9.77A73.68,73.68,0,0,0,524.9,592a72.74,72.74,0,0,0,8.68-10.49A78.7,78.7,0,0,0,544.1,558.1,120.54,120.54,0,0,0,548,531.18c.24-5.55.15-11.11,0-16.65-.13-5.82-.37-11.63-.65-17.44,12.63-7.12,25.56-13.73,38.37-20.53,10.85-5.75,21.88-11.18,32.62-17.14,2.57-1.43,5.13-2.91,7.66-4.41a54,54,0,0,0,4.63-2.93c2.32-1.72,4.58-3.52,6.91-5.24,1.32-1,2.66-1.92,4-2.83a29.94,29.94,0,0,1,3.4-1.92,5.26,5.26,0,0,1,1.09-.33c-2.16,2.06-4.36,4.06-6.55,6.08-3.52,3.25-7,6.56-10.22,10.06a74,74,0,0,0-8.71,11.17,36.28,36.28,0,0,0-5,12,23.51,23.51,0,0,0-.45,6.15,10.4,10.4,0,0,0,1.37,4.74,7.11,7.11,0,0,0,2.89,2.57,11.35,11.35,0,0,0,4.25,1,20.45,20.45,0,0,0,4.69-.22,38,38,0,0,0,5.37-1.24,57.85,57.85,0,0,0,11.37-4.91,122,122,0,0,0,14.42-9.86c4.71-3.59,9.35-7.27,14.3-10.53,3.18-2,6.45-3.92,9.7-5.83s6.52-3.79,9.81-5.64c-.9,1.39-1.81,2.78-2.7,4.17-1.57,2.46-3.08,5-4.49,7.51a57.41,57.41,0,0,0-3.74,8.08,15.18,15.18,0,0,0-1.11,6.85,5.86,5.86,0,0,0,.84,2.46,4.86,4.86,0,0,0,2.28,1.76,10.28,10.28,0,0,0,3.48.61,23.15,23.15,0,0,0,5.62-.6,27.34,27.34,0,0,0,6.19-2.2,44,44,0,0,0,6.44-3.9c4.08-2.85,7.79-6.21,11.59-9.41.77-.65,1.54-1.29,2.32-1.91,1.83-1.43,3.73-2.75,5.6-4.12,2.28-1.68,4.58-3.33,6.94-4.89a39.56,39.56,0,0,1,5.2-2.92,5.72,5.72,0,0,1,2.32-.55.87.87,0,0,0,.48,0c.21-.06.43-.14.64-.22-.13.33-.28.66-.42,1-1.11,2.4-2.35,4.74-3.49,7.11a43.29,43.29,0,0,0-3.14,8c-.49,1.93-.75,4.3.43,6a4.36,4.36,0,0,0,2.34,1.55,12.22,12.22,0,0,0,4.47.31c5-.36,9.73-2.38,14-4.81A99.78,99.78,0,0,0,769,467.57a59.29,59.29,0,0,0,5-4.79c2.27-2.32,4.55-4.63,6.9-6.86l.59-.55c.66-.6,1.32-1.18,2-1.74l.56-.42.27-.14a.86.86,0,0,1,.27-.05h0c-.92,1.84-2,3.61-2.92,5.45a17.93,17.93,0,0,0-2.23,6.92,6.3,6.3,0,0,0,.47,2.68,5.71,5.71,0,0,0,2.18,2.46c1.67,1.11,4,1.09,5.86.86a26.39,26.39,0,0,0,6.66-2c1.91-.8,3.78-1.71,5.63-2.63a90.58,90.58,0,0,0,8-4.82,63.7,63.7,0,0,1,8-4.46c.71-.28,1.41-.53,2.13-.76a20.7,20.7,0,0,1,2.89-.63,15.86,15.86,0,0,1,3.57-.31,2.31,2.31,0,0,1,1,.41,3.08,3.08,0,0,1,.78,1.22c.32.67.62,1.35,1,2,.21.38.45.74.69,1.1a5,5,0,0,1,.5.79,2.5,2.5,0,0,1,.2.71c0,.59,0,1.18.06,1.77,0,.26.05.51.08.77a3.17,3.17,0,0,0,.56,1.34,3.28,3.28,0,0,0,1.44,1,6.46,6.46,0,0,0,2,.47,16,16,0,0,0,8.86-1.62,8.51,8.51,0,0,0,1.29-.94,13,13,0,0,0,2-2.1,3.75,3.75,0,0,0,.6-1l0-.26a.7.7,0,0,0-.7.16l-.11.05a15.47,15.47,0,0,1-6.9,1,7.22,7.22,0,0,1-2.4-.79,3.68,3.68,0,0,1-1-.89,2.69,2.69,0,0,1-.49-1.31,23.68,23.68,0,0,0-.07-2.53,3.44,3.44,0,0,0-.42-1.29c-.21-.4-.5-.78-.74-1.16-.61-1-1-2.14-1.62-3.11a2.71,2.71,0,0,0-2.43-.9,17.68,17.68,0,0,0-2.61.3,26.5,26.5,0,0,0-3.55.82,35.4,35.4,0,0,0-6.81,3.09c-2.3,1.3-4.51,2.76-6.72,4.19a74.19,74.19,0,0,1-6.43,3.79c-1.55.78-3.11,1.54-4.69,2.24-2.91,1.22-6,2.29-9.22,2a6.85,6.85,0,0,1-3.14-1.32,5.38,5.38,0,0,1-1.94-3.47,13.46,13.46,0,0,1,1.49-6.1c1.21-2.51,2.72-4.88,3.87-7.43.05-.24,0-.33-.28-.28l-.46.18a2.9,2.9,0,0,0-1.3.45,14.75,14.75,0,0,0-2.29,1.57c-2.16,1.7-4.17,3.58-6.15,5.48s-3.7,3.66-5.52,5.52c-1,1.07-2.06,2.17-3.13,3.21-.83.72-1.73,1.38-2.58,2.06l.67-.53c-2.36,1.86-4.77,3.65-7.28,5.31a53.64,53.64,0,0,1-7,3.76c-1.13.46-2.26.87-3.43,1.22a30.11,30.11,0,0,1-3.39.74,17.93,17.93,0,0,1-4.74.22,5.76,5.76,0,0,1-3-1.29,4.19,4.19,0,0,1-1.19-2.66,13,13,0,0,1,.63-4.25,36.21,36.21,0,0,1,1.95-5c-.07.14-.14.28-.2.43.91-2,1.91-4,2.9-5.95a55.45,55.45,0,0,0,2.33-5.08c.06-.24,0-.34-.27-.28-.4.15-.8.3-1.2.43a5.21,5.21,0,0,0-2.54.44,27.64,27.64,0,0,0-4,2c-3.06,1.78-6,3.84-8.81,5.91L726,464.57c-1.29.94-2.61,1.85-3.87,2.83-3.77,2.94-7.3,6.16-11,9.17-1.44,1.13-2.91,2.21-4.43,3.23a39.33,39.33,0,0,1-4.69,2.55,26.57,26.57,0,0,1-6,1.72,20,20,0,0,1-5.06.26,6.8,6.8,0,0,1-3.61-1.45,5,5,0,0,1-1.52-3.17,13.27,13.27,0,0,1,.5-4.34,32.44,32.44,0,0,1,1.92-5.23,92.26,92.26,0,0,1,5.33-9.63c1.54-2.48,3.18-4.91,4.72-7.4a.41.41,0,1,0-.51-.52q-6.57,3.69-13.07,7.53c-4,2.35-7.95,4.71-11.74,7.35-7.07,4.93-13.59,10.58-20.78,15.33a67.21,67.21,0,0,1-9.25,5,52.85,52.85,0,0,1-7.68,2.57,24,24,0,0,1-8.14.73,9.26,9.26,0,0,1-4.79-2,8.37,8.37,0,0,1-2.59-5.53,2.11,2.11,0,0,1,0,.25,27.38,27.38,0,0,1,2.56-13.32,47.45,47.45,0,0,1,3.44-6q1.46-2.06,3-4c1.17-1.37,2.37-2.7,3.6-4,5.59-5.75,11.75-10.89,17.39-16.57a9.08,9.08,0,0,0,1.62-1.94c.06-.11.48-.87-.08-.71l-.39.13a2.7,2.7,0,0,0-1.35.08,12.32,12.32,0,0,0-2.39,1,53.08,53.08,0,0,0-6,3.84c-2,1.39-3.9,2.86-5.82,4.33-1.13.87-2.24,1.79-3.42,2.59-2.19,1.38-4.43,2.67-6.67,4q-4.15,2.39-8.37,4.65c-5.4,2.93-10.87,5.73-16.33,8.55-10.38,5.34-20.71,10.81-31,16.26-7.48,4-14.94,8-22.29,12.19-.6-12.23-1.33-24.47-1.54-36.72A258.06,258.06,0,0,1,548,416.65a119.33,119.33,0,0,1,3.51-16.42A112.51,112.51,0,0,1,557,385.3a125.08,125.08,0,0,1,10.08-17.78c2.34-3.4,4.84-6.69,7.46-9.88,2.15-2.56,4.39-5.06,6.69-7.49s4.85-4.88,7.38-7.22q4.82-4.38,9.91-8.44,6.24-4.92,12.81-9.39c3.08-2.1,6.21-4.15,9.34-6.19l-.48.3a102.08,102.08,0,0,1,14.59-8.14l-.26.11.33-.14h0c4-1.66,8.26-3.07,12.6-2.64a10.87,10.87,0,0,1,4.78,1.79,7.57,7.57,0,0,1,2,2,6.91,6.91,0,0,1,1,3.07,16.16,16.16,0,0,1-1.57,7.29,34.35,34.35,0,0,1-2.5,4.42c-.47.68-1,1.34-1.49,2-.38.43-.76.86-1.16,1.27-.06.07-.9,1-.44,1a2.1,2.1,0,0,0,.53-.29,8.37,8.37,0,0,0,1.07-1,34,34,0,0,0,3.3-4.08,33.09,33.09,0,0,0,3.13-5.41c1.56-3.46,2.73-7.5,1-11.12a7.72,7.72,0,0,0-3.11-3.22,10,10,0,0,0-4.15-1.17c-.35,0-.7,0-1.05,0a19,19,0,0,0-3.54.33ZM598.53,334.5l-.42.33.42-.33ZM589,342.59l-.15.13.15-.13Zm-21.92,24.94-.26.38.26-.38ZM741,458.84c0,.07-.07.15-.1.23,0-.08.07-.16.1-.23Zm-.13.28-.06.15.06-.15Zm97.27,3.43h0Zm-39.35,2.29-.39.17.39-.17Zm-110.56,5.35c-.06.13-.11.25-.17.37,0-.12.11-.24.17-.37Zm18.31,9.72-.31.2.31-.2Zm-53.92,2.62-.27.17.27-.17ZM691,484.34h0ZM643.2,487.7l-.16.07.16-.07ZM543.93,499c.16,3.35.32,6.7.45,10.05.41,10.91.71,21.87-.3,32.75a104.12,104.12,0,0,1-5.69,26.28q-1,2.65-2.15,5.24a73.09,73.09,0,0,1-5.65,10.07c-1.06,1.54-2.18,3-3.36,4.46-.81,1-1.64,1.89-2.5,2.8-.71.72-1.43,1.43-2.16,2.12-1,.91-2.05,1.8-3.12,2.65q-2.18,1.69-4.48,3.21a75.67,75.67,0,0,1-10.68,5.65,74.29,74.29,0,0,1-13,4.19,42.91,42.91,0,0,1-13.55,1,24.84,24.84,0,0,1-6.24-1.57,17.57,17.57,0,0,1-5.53-3.63c-3.78-3.66-5.36-9-5.87-14.06a33.63,33.63,0,0,1,.61-9.28,44.06,44.06,0,0,1,3.06-9.21,72.35,72.35,0,0,1,5.64-9.86c1.83-2.66,3.8-5.21,5.85-7.7s4.21-4.81,6.42-7.14c3.91-4,8-7.93,12.14-11.73l-.73.66c5.05-4.61,10.14-9.19,15.48-13.47,5.92-4.67,12.07-9,18.38-13.14l-.58.37C532.11,506,538,502.44,543.93,499ZM524.52,590.9l-.2.21.2-.21Zm-20.29,13.44-.24.1.24-.1Zm-26.7,5.12h0ZM634.87,311l-.07,0,.08,0Z" transform="translate(-305.34 -261.06)"/><path class="cls-1" d="M830.44,330a2.35,2.35,0,0,0-.64.35,8.94,8.94,0,0,0-.88.75,10.49,10.49,0,0,0-.77.86c-.09.13-.48.57-.35.79a9.18,9.18,0,0,0,1.52,1.77,22.13,22.13,0,0,0,1.83,1.53c1.37,1.06,2.83,2,4.27,2.94,2.71,1.79,5.51,3.68,7.28,6.46a.47.47,0,0,0,.46-.11,6.06,6.06,0,0,0,1.35-1.07,9.39,9.39,0,0,0,.84-.94c.11-.14.52-.61.38-.85-1.58-2.81-4.32-4.66-7-6.39-1.45-.95-2.92-1.87-4.34-2.87l-.9-.67,0,0a5.2,5.2,0,0,0,1.07-.85,6.89,6.89,0,0,0,.67-.75s.47-.63.3-.67a15.44,15.44,0,0,0-2.42-.47c-.24,0-.47,0-.7,0a7.45,7.45,0,0,0-2,.25Zm4.86.93Z" transform="translate(-305.34 -261.06)"/><path class="cls-1" d="M1023.94,297.89l-.31.13a5.49,5.49,0,0,0-.88.64,11.45,11.45,0,0,0-1,1,3.38,3.38,0,0,0-.8,1.18c-9.18,32.55-16.66,65.55-25.36,98.23-2.17,8.13-4.42,16.24-6.82,24.3q-3.39,11.43-6.77,22.88-2.91,9.9-5.92,19.78c-11.84,3.42-24.17,5.07-36.44,3.71h0l-.15,0h0c-1.4-.17-2.8-.38-4.19-.6a.49.49,0,0,0-.46.11,5.87,5.87,0,0,0-1.33,1.05,9.09,9.09,0,0,0-.82.93c-.12.15-.5.58-.38.83a101,101,0,0,1,6.75,18.76A130.39,130.39,0,0,1,942.57,511v0A171,171,0,0,1,943,535c-.19,4-.51,8-.92,12s-1,7.8-1.47,11.7c0,.38.59-.1.65-.15a5.69,5.69,0,0,0,.7-.6,3.86,3.86,0,0,0,.82-1c1.76-3.58,3.54-7.16,5.25-10.77s3.33-7.17,4.92-10.78q4.9-11.08,9.25-22.41c5.75-14.88,10.85-30,15.74-45.18a150.16,150.16,0,0,0,18-7.23,189.56,189.56,0,0,0,18.83-10.39,364.7,364.7,0,0,0,36.92-25.86l.54-.44c-4.57,13-9.1,25.93-13.24,39-1.27,4-2.48,8-3.66,12-1,3.3-1.86,6.62-2.81,9.92-.84,3-1.8,5.88-2.69,8.82-1.22,4-2.36,8.07-3.34,12.16a97.11,97.11,0,0,0-2.32,13,41.69,41.69,0,0,0,0,9.14,15.41,15.41,0,0,0,2.43,7.11,9,9,0,0,0,5.78,3.58,14.76,14.76,0,0,0,5.58-.08,23,23,0,0,0,8-3.68,13.75,13.75,0,0,0,1.23-1.06,11.25,11.25,0,0,0,1.08-1.21,3.24,3.24,0,0,0,.52-.88l0-.22a.61.61,0,0,0-.6.14,28.8,28.8,0,0,1-3.56,2,15.15,15.15,0,0,1-7.25,1.15,10.16,10.16,0,0,1-3.56-1.13,8.32,8.32,0,0,1-2.72-2.46,15.62,15.62,0,0,1-2.52-7.72,51.56,51.56,0,0,1,.62-12.09,128.42,128.42,0,0,1,2.77-13c1-3.84,2.14-7.65,3.3-11.44.45-1.46.9-2.91,1.34-4.37.61-2,1.14-4.08,1.71-6.12,4.5-16.1,9.84-32,15.35-47.74,1-2.8,2-5.61,3-8.41,4.24-3.6,8.36-7.34,12.32-11.24a165.51,165.51,0,0,0,15.34-17.18,144.82,144.82,0,0,0,21.63-40.49c.94-2.68,1.78-5.4,2.63-8.12a69.74,69.74,0,0,0,2-8,20.42,20.42,0,0,0,.16-7.71,5.87,5.87,0,0,0-3.12-4.21,5.24,5.24,0,0,0-4.37.34,21.59,21.59,0,0,0-5.72,4.24,48.37,48.37,0,0,0-5.15,5.83c-1.48,1.93-2.84,3.95-4.15,6-2,3.06-3.75,6.23-5.65,9.33a166.47,166.47,0,0,0-10.71,21.1c-3.11,7.23-5.82,14.64-8.43,22.06-2.73,7.72-5.4,15.47-8.12,23.19-.74,2.07-1.47,4.15-2.21,6.23-1,.79-1.94,1.58-2.93,2.36-8.28,6.53-16.91,12.61-25.75,18.37l.07,0-.11.07-.08.05.08-.05c-4.95,3.22-9.95,6.38-15.08,9.31A172.19,172.19,0,0,1,992.65,460h0a144.22,144.22,0,0,1-13.84,5.15c4.7-14.69,9.09-29.47,13.56-44.23,4.87-16.13,9.15-32.42,13.18-48.77,6.09-24.73,11.66-49.58,18.59-74.1,0-.13,0-.2-.11-.21l-.09,0Zm78.41,29.39a4.6,4.6,0,0,1,2.54,1.42,7.26,7.26,0,0,1,1.74,4.34,27,27,0,0,1-.74,7.6,79.12,79.12,0,0,1-2.14,7.7c-.9,2.85-1.81,5.69-2.83,8.5-1.25,3.46-2.66,6.87-4.17,10.22a148.5,148.5,0,0,1-12,21.43q-3.21,4.67-6.81,9c-2.23,2.66-4.56,5.25-7,7.77-2.69,2.78-5.47,5.47-8.31,8.1-1.73,1.57-3.47,3.11-5.24,4.62q2.3-6.48,4.58-13c2.69-7.61,5.28-15.24,8-22.82,2.44-6.71,5-13.37,8-19.88,0,.06,0,.12-.08.17q2.36-5.16,5-10.16c1.46-2.7,3.06-5.3,4.62-7.93,1.91-3.23,3.8-6.47,5.89-9.58,1-1.44,2-2.84,3.11-4.19.38-.45.78-.9,1.18-1.33.17-.18.34-.35.52-.51l.35-.3.48-.35a8.11,8.11,0,0,1,.92-.49,5.09,5.09,0,0,1,2.28-.39Zm-8.64,7.26a2.33,2.33,0,0,1-.17.26c.06-.09.12-.17.17-.26Zm3,32.57-.16.36.16-.36Zm-143,105.79a108.45,108.45,0,0,0,21.56-4.27q-3.6,11.67-7.47,23.26a554.05,554.05,0,0,1-20.49,53v-.05q-1.83,4-3.76,8c.36-2.36.65-4.74.93-7.1q.66-5.57,1-11.15a179.86,179.86,0,0,0,0-22.51,135.64,135.64,0,0,0-3.1-21.88q-1.25-5.44-3-10.72c-.76-2.28-1.62-4.52-2.54-6.73,2,.23,4,.37,5.93.45q1.13.06,2.25.06a85.74,85.74,0,0,0,8.63-.34Zm74.83,50.34s0,.09,0,.13l0-.13Zm-81.22,21.55.09-.18-.09.18Zm-4.76-33.88v-.11s0,.07,0,.11Zm-2.93-41.2h0l-.11,0,.1,0Zm84.74-27.31h0l0,0,0,0Z" transform="translate(-305.34 -261.06)"/><path class="cls-1" d="M1112.55,462.48a2.86,2.86,0,0,0-.58.46,3.23,3.23,0,0,0-.62.81,6.55,6.55,0,0,0-.27.69v.07a2.55,2.55,0,0,0-.31.47c0,.07-.23.41-.12.5h.1a.56.56,0,0,0,.2-.08l.08,0c-.14.13-.27.27-.39.4a3.37,3.37,0,0,0-.29.37c0,.08-.13.23,0,.22a1.34,1.34,0,0,0,.31-.17l0,0a4.68,4.68,0,0,0,.45-.19c0,.08-.05.15-.07.23s0,.07.05.06.27-.16.35-.23a3.83,3.83,0,0,0,.29-.28,1,1,0,0,0,.23-.34l0-.11.15-.16a2.86,2.86,0,0,0,.38-.26,2.34,2.34,0,0,0,.55-.62c0-.07.07-.14,0-.2l0-.14c0-.15.07-.3.1-.46s.15-.7,0-.62a1.49,1.49,0,0,0-.41.26v0c0-.07,0-.14,0-.21s.07-.27,0-.33-.07-.11-.14-.13l-.06,0a.52.52,0,0,0-.21.07Zm-.09.42Z" transform="translate(-305.34 -261.06)"/><path class="cls-1" d="M1356.09,273.5a43.07,43.07,0,0,0-6.15,2.5,66.35,66.35,0,0,0-6.47,3.66,130.45,130.45,0,0,0-13.45,9.91,239.26,239.26,0,0,0-19.83,18.64l-.26.28c-.23.21-.44.44-.65.67-23.63,24.69-43.51,52.73-61.91,81.44q-7.11,11.08-13.94,22.35c-2,3.3-4,6.61-6,9.95q-6.24,10.71-11.89,21.76c-4.74,9.26-9.16,18.69-13.11,28.31a203.27,203.27,0,0,0-9.89,29.8c-2.07,8.7-3.4,17.78-2.45,26.72a34.06,34.06,0,0,0,2.84,10.76,23.55,23.55,0,0,0,6.27,8.23,27,27,0,0,0,10.25,5.12c1.41.39,2.85.68,4.29,1,1.92.37,3.86.66,5.8.9a69.54,69.54,0,0,0,10.3.49,56.5,56.5,0,0,0,18.59-3.68,68,68,0,0,0,16.62-9.41,120,120,0,0,0,16.1-15c2.68-2.94,5.24-6,7.72-9.09a79.74,79.74,0,0,0,6.68-9.55,32,32,0,0,0,3.66-8.94,19.55,19.55,0,0,0-.11-8.71,25.44,25.44,0,0,0-4.64-9.23,49.8,49.8,0,0,0-4.11-4.72,31,31,0,0,0-2.88-2.61,82.8,82.8,0,0,0-8.6-5.78c-3.37-2.08-6.75-4.13-10-6.4a42.59,42.59,0,0,1-8.18-7.15,16.44,16.44,0,0,1-4.07-8.67,15.29,15.29,0,0,1,1.25-7.15,19.45,19.45,0,0,1,1.21-2.13c.24-.34.49-.68.75-1s.36-.41.55-.61l.6-.58c.36-.32.72-.63,1.09-.93.82-.64,1.67-1.24,2.54-1.82a59.59,59.59,0,0,1,7.87-4.14,72.05,72.05,0,0,1,13.68-4.26,42,42,0,0,1,12.94-.81,19.75,19.75,0,0,1,7.21,2.24,13.87,13.87,0,0,1,4.84,4.79,23.84,23.84,0,0,1,2.73,7,66.35,66.35,0,0,1,1.43,9c1.48,16.33-3.71,32.22-9.06,47.41-2.76,7.83-5.62,15.65-7.89,23.65a93.17,93.17,0,0,0-3.92,23.35c0,.47,0,.93,0,1.39,0,.23,0,.32.27.27l.41-.18a8.53,8.53,0,0,0,1.2-.87,15.17,15.17,0,0,0,1.34-1.32l.52-.62a3.1,3.1,0,0,0,.56-1,122.32,122.32,0,0,1,1.83-12.36c.83-4.08,1.87-8.09,3-12.09,2.3-7.93,5-15.73,7.67-23.55a222.21,222.21,0,0,0,6.68-23.18,82.18,82.18,0,0,0,2-23.39,73,73,0,0,0-1.29-9.55,28.52,28.52,0,0,0-2.48-7.36,14.47,14.47,0,0,0-4.45-5.16,17.31,17.31,0,0,0-7.25-2.71c-5.59-.93-11.32-.15-16.79,1.15a69.71,69.71,0,0,0-17.73,6.89,43.43,43.43,0,0,0-15,13.3,17.67,17.67,0,0,0-2.77,7.2,14,14,0,0,0,.76,6.69,19,19,0,0,0,3.66,5.87,39.38,39.38,0,0,0,5.7,5.17c4.34,3.32,9.09,6.06,13.72,8.94,1.78,1.11,3.54,2.25,5.24,3.47q1.2.86,2.34,1.8a33.3,33.3,0,0,1,2.66,2.52c4.28,4.39,8,9.73,8.78,16a20.42,20.42,0,0,1-.3,5.46,24.81,24.81,0,0,1-1.81,5.48,46.91,46.91,0,0,1-3.62,6.26c-1.8,2.59-3.75,5.06-5.75,7.48q-3.27,3.9-6.76,7.6c-1.47,1.52-3,3-4.51,4.43q-2,1.85-4.18,3.58c-1.68,1.3-3.4,2.55-5.17,3.72a63.88,63.88,0,0,1-8.81,4.75,56.69,56.69,0,0,1-14.13,3.91,64.92,64.92,0,0,1-16.77.05,80.25,80.25,0,0,1-9-1.61,31.1,31.1,0,0,1-5.14-1.74,23.93,23.93,0,0,1-7.79-5.48c-4.43-4.74-6.35-11.19-7-17.52-.78-9,.73-18,2.86-26.71a208.53,208.53,0,0,1,10.1-29.86q2.21-5.34,4.59-10.58l-.09.19A432.49,432.49,0,0,1,1235,414c9.56-15.85,19.39-31.55,29.82-46.84l-.16.23c9.41-13.76,19.32-27.2,30-40l-.51.61q5.71-6.86,11.73-13.45c1.67-1.83,3.36-3.63,5.06-5.42l.17-.17.05-.06,1.28-1.32c.94-1,1.9-1.94,2.86-2.9q3.65-3.63,7.44-7.12c2.91-2.65,5.91-5.23,9-7.69,2.69-2.11,5.44-4.13,8.3-6a62.93,62.93,0,0,1,8.76-4.78c3.61-1.5,7.53-2.64,11.47-2.22a12.69,12.69,0,0,1,2.73.68,12.37,12.37,0,0,1,2.59,1.38,15.37,15.37,0,0,1,3.66,3.4,18,18,0,0,1,3.41,9.32,45.15,45.15,0,0,1-1.83,15.27,117.52,117.52,0,0,1-6.8,18.23l.15-.33a276.58,276.58,0,0,1-14.36,26.85c-4.79,8-9.86,15.91-14.94,23.77-2.25,3.5-4.53,7-6.72,10.53a54.11,54.11,0,0,0-3.78,6.83c0,.12,0,.17.14.14s.68-.4.87-.57a4.6,4.6,0,0,0,1.31-1.56l.08-.2a57,57,0,0,1,3.25-5.75c1.79-2.9,3.64-5.75,5.5-8.61,5-7.71,10-15.41,14.85-23.24,5.47-8.86,10.68-17.88,15.34-27.19,2.23-4.44,4.31-9,6.12-13.6a90.79,90.79,0,0,0,4-12.6,41.81,41.81,0,0,0,1.16-11,20.42,20.42,0,0,0-2.28-9,14.65,14.65,0,0,0-6.63-6.16,12.56,12.56,0,0,0-5.15-1.08,22.51,22.51,0,0,0-6.8,1.1Zm-16.17,10.43-.29.19.29-.19Zm32.69,7.54v.08a.22.22,0,0,0,0-.08Zm-45.77,99-.06.13.06-.13ZM1299,423.6h0Zm-37,11.19-.19.16.19-.16Zm53.44,12v.1s0-.06,0-.1ZM1194.46,524.9a.28.28,0,0,0,0,.09v-.09Zm74.11,13.46-.35.27.35-.27Zm-.5.39-.18.15.18-.15Zm-44.67,12.36.12,0-.12,0ZM1212,457.6a2.56,2.56,0,0,0,.11-.24l-.11.24Z" transform="translate(-305.34 -261.06)"/><path class="cls-1" d="M1444.21,361.28c-5.72,2.52-10.69,6.52-15.22,10.75a82.14,82.14,0,0,0-11.57,13.34,44.09,44.09,0,0,0-7.47,17.57,62.1,62.1,0,0,0,.16,23.65,113.1,113.1,0,0,0,3.24,12.31c1.32,4.26,2.82,8.46,4.41,12.63q1.1,2.87,2.25,5.72c-9,10.6-18.52,20.84-28,31-4.46,4.8-9,9.57-13.39,14.4-2,2.23-4.08,4.45-6.17,6.63-2.79,2.89-5.65,5.72-8.6,8.45-1.93,1.76-3.91,3.48-5.94,5.12-1.72,1.36-3.48,2.66-5.3,3.87a42.21,42.21,0,0,1-5.55,3.06,14.65,14.65,0,0,1-7,1.37,7.22,7.22,0,0,1-4.89-3,13.89,13.89,0,0,1-2.33-6.83l0,.21c-.45-4.92.45-9.92,1.64-14.67a101.65,101.65,0,0,1,6.12-17.11,111.61,111.61,0,0,1,9-16.21c1.19-1.71,2.43-3.39,3.75-5,.65-.76,1.31-1.51,2-2.24q.69-.7,1.41-1.38c.38-.35.78-.68,1.18-1s.87-.65,1.32-.95a17.75,17.75,0,0,1,2.06-1.11,10.91,10.91,0,0,1,2.57-.72,2.34,2.34,0,0,0,.74-.41,9.25,9.25,0,0,0,1.53-1.4c.06-.07,1.3-1.53.64-1.43a12.68,12.68,0,0,0-4.42,1.59,28.52,28.52,0,0,0-5.06,3.67,64.12,64.12,0,0,0-10,11.5,112.16,112.16,0,0,0-8.46,14.44,119.65,119.65,0,0,0-6.43,15.65,67,67,0,0,0-3.25,14.46c-.36,3.7-.28,7.61,1.26,11a8.61,8.61,0,0,0,2.86,3.64,7.5,7.5,0,0,0,4,1.22,13.3,13.3,0,0,0,4.67-.76,31,31,0,0,0,5.41-2.45,77.7,77.7,0,0,0,11.91-8.55c3.85-3.23,7.51-6.69,11.07-10.25,2.93-2.92,5.78-5.93,8.59-9q5.33-5.76,10.67-11.49c10.47-11.2,21-22.4,31-34,2.44,5.95,5.06,11.82,7.7,17.68,2.73,6.05,5.61,12,7.89,18.27a152.44,152.44,0,0,0-25,25.28,103.14,103.14,0,0,0-9.12,13.57,36.24,36.24,0,0,0-3.16,7.71,15.09,15.09,0,0,0-.27,7.07,10,10,0,0,0,4,5.78,16,16,0,0,0,8.85,2.89,23.73,23.73,0,0,0,10.15-2.17,37.74,37.74,0,0,0,9.47-5.94A41.37,41.37,0,0,0,1443.64,530c2.18-6.66,2.4-13.79,1.65-20.7a79.58,79.58,0,0,0-4-17.34c9.57-7.28,19.6-13.9,29.54-20.63,5.57-3.78,11.12-7.58,16.52-11.6s10.65-8.45,16.33-12.2a59.16,59.16,0,0,1,8-4.37,32,32,0,0,1,6.83-2.06,9.67,9.67,0,0,1-.74,2.16,74.45,74.45,0,0,1-4.07,7.37c-2,3.34-4.09,6.63-6.16,9.92-4.73,7.5-9.47,15-13.67,22.84a107.13,107.13,0,0,0-5.17,10.88,29.7,29.7,0,0,0-2.3,8.7c-.15,2,.12,4.28,1.66,5.73,1.77,1.67,4.62,1.68,6.88,1.47a29.29,29.29,0,0,0,9.4-2.74,54.45,54.45,0,0,0,10.49-6.6c6.67-5.13,12.54-11.17,18.71-16.87,1.32-1.2,2.68-2.35,4-3.55.78-.72,1.54-1.45,2.31-2.19,2.45-2.33,4.9-4.67,7.4-7,2.3-2.11,4.64-4.19,7.08-6.15.81-.63,1.63-1.24,2.48-1.82.43-.26.86-.51,1.31-.73a2.54,2.54,0,0,1,.86-.18l.19,0h.12l.11,0c0,.26.08.53.11.8.07.54.12,1.08.17,1.62,0-.08,0-.16,0-.24.63,6.62.46,13.41,2.44,19.82a22.42,22.42,0,0,0,13.3,14.41,21.79,21.79,0,0,0,9,1.1,30,30,0,0,0,9.26-2.28,43.06,43.06,0,0,0,9-5.12,51.57,51.57,0,0,0,8.27-7.56,36.19,36.19,0,0,0,4-5.4.66.66,0,0,0,.16-.62c-.24-.25-1,.4-1.15.48a10.47,10.47,0,0,0-2.74,2.85c-.19.3-.38.6-.58.9-.43.62-.88,1.21-1.35,1.8q-.53.6-1.05,1.17t-.93.9c-.4.35-.8.7-1.21,1-.81.64-1.65,1.24-2.51,1.81a42.83,42.83,0,0,1-5.43,2.9,29.33,29.33,0,0,1-14.43,2.43,20.79,20.79,0,0,1-7.19-2.33,21.33,21.33,0,0,1-6.59-5.92c-3.45-4.54-4.6-10.22-5.15-15.77a1.94,1.94,0,0,1,0,.24c-.22-2.42-.36-4.85-.53-7.28-.09-1.16-.19-2.32-.32-3.48-.06-.66-.15-1.33-.24-2,.08-.25,0-.39-.14-.43a1.21,1.21,0,0,0-.34-.06,2.88,2.88,0,0,0-2,.41,20.48,20.48,0,0,0-3.17,1.93,89.16,89.16,0,0,0-7.78,6.36c-2.77,2.45-5.48,5-8.17,7.53-1.61,1.53-3.2,3.08-4.82,4.59-.67.6-1.36,1.17-2,1.77-1.42,1.25-2.8,2.54-4.18,3.84-2.7,2.55-5.36,5.14-8.09,7.66-1.87,1.7-3.78,3.37-5.75,4.95q-2.19,1.73-4.51,3.29a44.78,44.78,0,0,1-6,3.29,28.4,28.4,0,0,1-6.93,2,15.76,15.76,0,0,1-3.88.12,6.11,6.11,0,0,1-3.53-1.55,5.68,5.68,0,0,1-1.47-3.41,17.87,17.87,0,0,1,.78-6,53.21,53.21,0,0,1,2.93-7.81,212.2,212.2,0,0,1,12.48-22.34c4.11-6.66,8.43-13.19,12.29-20,.86-1.52,1.69-3.06,2.41-4.65a9.54,9.54,0,0,0,1-2.93c.06-.22,0-.31-.25-.26a38.89,38.89,0,0,0-10.43,3.82,79.42,79.42,0,0,0-10.07,6.37c-3.16,2.27-6.21,4.69-9.28,7.09q-4.38,3.42-8.9,6.64c-12.67,9.05-25.86,17.33-38.38,26.59-1.48,1.11-3,2.22-4.43,3.36-.27-.77-.55-1.53-.84-2.29-1.34-3.52-2.92-6.94-4.47-10.37-1.82-4-3.65-8.05-5.45-12.1s-3.61-8.24-5.31-12.41c10-11.89,19.56-24.24,27.69-37.51,2.74-4.47,5.29-9,7.57-13.77a91.6,91.6,0,0,0,6.37-16.51c1.3-4.92,2-10.2.92-15.23a15.16,15.16,0,0,0-2.81-6.06,14.55,14.55,0,0,0-5.78-4.36,13.88,13.88,0,0,0-5.38-1.1,22.63,22.63,0,0,0-9.17,2.1Zm6.59,2.4a14.66,14.66,0,0,1,9,4.88,15.9,15.9,0,0,1,3.54,9,37.3,37.3,0,0,1-1.37,12.25,82.64,82.64,0,0,1-5,13.54l0-.1a175.7,175.7,0,0,1-14.66,25.26l.28-.41c-5.74,8.36-11.94,16.39-18.4,24.2-1.49-3.69-2.91-7.4-4.23-11.15-1.46-4.16-2.79-8.37-3.94-12.62a79,79,0,0,1-2.32-11.89,1.43,1.43,0,0,0,0-.29v0a.88.88,0,0,0,0-.16l0,.11c-.84-9.24.14-18.76,4-27.29a43.22,43.22,0,0,1,3.17-5.53c1.11-1.61,2.3-3.17,3.54-4.68,1-1.2,2.06-2.37,3.14-3.51.83-.85,1.68-1.68,2.54-2.49s1.8-1.57,2.73-2.32,2.11-1.59,3.22-2.33a38.45,38.45,0,0,1,5-2.7,20.2,20.2,0,0,1,9.84-1.71Zm-14.36,4.11-.17.12.17-.12Zm26.84,9.5a.71.71,0,0,1,0,.14s0-.09,0-.14Zm-6.14,25.6c0,.1-.09.21-.14.31,0-.1.09-.21.14-.31Zm60.51,40.48a2.55,2.55,0,0,1-.13.29c0-.1.09-.19.13-.29Zm40.2,19.3-.07,0,.07,0Zm-202.07,3.26-.35.37.35-.37Zm181.06,13.49-.21.19.21-.19Zm-42.39,7.81a2.56,2.56,0,0,0-.11.24,2.56,2.56,0,0,1,.11-.24Zm-57.89,8.42q.38,1.05.72,2.1a79.66,79.66,0,0,1,3.63,16.8,2.28,2.28,0,0,1,0-.26,55.93,55.93,0,0,1-.14,12.27,40.66,40.66,0,0,1-3.14,11.27,38.14,38.14,0,0,1-2.8,5c-.53.75-1.08,1.49-1.65,2.2-.2.24-.41.47-.62.7l-.49.48-1,.8c-.58.45-1.17.87-1.78,1.28a34.1,34.1,0,0,1-4.46,2.39,23.36,23.36,0,0,1-11.24,1.89,15.67,15.67,0,0,1-8.16-3.58,9.49,9.49,0,0,1-3.11-6.15,21.06,21.06,0,0,1,2.21-9.93,64.54,64.54,0,0,1,5-8.67q3.45-5,7.31-9.7c1.62-1.91,3.28-3.77,5-5.59q3-3.1,6.16-6c2.76-2.51,5.6-4.92,8.5-7.27ZM1495.84,506h0Zm-73.58,2.55-.15.16.15-.16ZM1357.81,523l-.44.35.44-.35Zm46.87,9.68-.06.15.06-.15Zm32.86,5.36c0,.08-.07.15-.1.23,0-.08.07-.15.1-.23Zm-35.21,4.71a.25.25,0,0,1,0,.08v-.08Zm11.42,9.88h0Zm145.39-90.12h0Zm-116.53-34.39.11-.16-.11.16Zm-28.92-11.78v0Z" transform="translate(-305.34 -261.06)"/><path class="cls-1" d="M1429,261.42c-2.94,1.61-4.92,4.36-7.29,6.65a3.21,3.21,0,0,0-1,2.25,3.5,3.5,0,0,0,.91,2.27,40.31,40.31,0,0,0,6.65,6.6,28.66,28.66,0,0,0,9.1,5.17,2.95,2.95,0,0,0,2.33-5.36,42.57,42.57,0,0,1-5.45-3.57c-1.34-1.08-2.63-2.22-3.89-3.4l-2.2-2.11A21.19,21.19,0,0,1,1431,267q.4-.27.84-.51a3,3,0,0,0,1.09-4,2.91,2.91,0,0,0-2.51-1.45,3,3,0,0,0-1.47.36Z" transform="translate(-305.34 -261.06)"/><path class="cls-1" d="M1300.82,661.6a8,8,0,0,1-3.41,1.44,22.75,22.75,0,0,1-4.39.4,14.41,14.41,0,0,1-5.29-1,11.75,11.75,0,0,1-4.31-2.94,14.18,14.18,0,0,1-2.92-5,22.24,22.24,0,0,1-1.07-7.29,20.55,20.55,0,0,1,1.19-7.46,14.25,14.25,0,0,1,3.14-5,11.9,11.9,0,0,1,4.37-2.84,14,14,0,0,1,4.93-.9,27.53,27.53,0,0,1,4.4.29,14.31,14.31,0,0,1,2.91.78l-.89,3.32a14.23,14.23,0,0,0-6.15-1.07,10.22,10.22,0,0,0-3.63.67,8.29,8.29,0,0,0-3.21,2.2,10.93,10.93,0,0,0-2.26,4,18.61,18.61,0,0,0-.85,6.05,17.9,17.9,0,0,0,.8,5.66,11.64,11.64,0,0,0,2.22,4,8.93,8.93,0,0,0,3.32,2.42,10.48,10.48,0,0,0,4.15.81,13.59,13.59,0,0,0,3.52-.4,9.59,9.59,0,0,0,2.53-1Z" transform="translate(-305.34 -261.06)"/><path class="cls-1" d="M1303.87,647.2q0-7.85,3.32-12t9.46-4.19a13.26,13.26,0,0,1,5.75,1.16,10.81,10.81,0,0,1,4,3.3,14.32,14.32,0,0,1,2.35,5.11,26.83,26.83,0,0,1,.77,6.66q0,7.86-3.34,12t-9.54,4.19a12.81,12.81,0,0,1-5.67-1.17,10.71,10.71,0,0,1-4-3.29,14.47,14.47,0,0,1-2.36-5.12A27.22,27.22,0,0,1,1303.87,647.2Zm4,0a23.1,23.1,0,0,0,.51,4.94,13.55,13.55,0,0,0,1.6,4.1,8.31,8.31,0,0,0,2.76,2.83,7.32,7.32,0,0,0,4,1,7.72,7.72,0,0,0,6.55-3.16q2.38-3.16,2.38-9.76a22.53,22.53,0,0,0-.52-4.91,13,13,0,0,0-1.61-4.12,8.65,8.65,0,0,0-2.78-2.83,7.43,7.43,0,0,0-4-1.05,7.63,7.63,0,0,0-6.48,3.16Q1307.81,640.61,1307.82,647.2Z" transform="translate(-305.34 -261.06)"/><path class="cls-1" d="M1341.5,642.36l-2.42-4.53h-.18l.45,4.53V662.9h-3.5V631h2l15,21,2.33,4.3h.23l-.5-4.3V631.51h3.5V663.4h-2Z" transform="translate(-305.34 -261.06)"/><path class="cls-1" d="M1366,631.51c.56-.09,1.2-.16,1.9-.21s1.44-.07,2.2-.09l2.24,0,2,0a16.86,16.86,0,0,1,6.53,1.16,12,12,0,0,1,4.55,3.26,13.35,13.35,0,0,1,2.67,5,23.51,23.51,0,0,1,0,12.53,14.5,14.5,0,0,1-2.62,5.2,12.78,12.78,0,0,1-4.66,3.64,16.11,16.11,0,0,1-7,1.37l-1.86,0c-.76,0-1.54,0-2.35-.09l-2.24-.11A10.9,10.9,0,0,1,1366,663Zm8.47,3h-1.28c-.46,0-.91,0-1.36,0l-1.24.09-.87.09v25.12a7.13,7.13,0,0,0,.85.07l1.3,0,1.3,0,.85,0a11.56,11.56,0,0,0,5.27-1.08,9.11,9.11,0,0,0,3.41-2.89,11.57,11.57,0,0,0,1.82-4.17,21.7,21.7,0,0,0,.54-4.87,20.31,20.31,0,0,0-.5-4.42,11.31,11.31,0,0,0-1.7-4,9.34,9.34,0,0,0-3.25-2.94A10.43,10.43,0,0,0,1374.51,634.47Z" transform="translate(-305.34 -261.06)"/><path class="cls-1" d="M1413.4,631.51H1417v20.94a14.54,14.54,0,0,1-.74,4.89,8.78,8.78,0,0,1-2.11,3.39,8.42,8.42,0,0,1-3.3,1.95,13.61,13.61,0,0,1-4.26.63c-3.71,0-6.5-.84-8.39-2.52s-2.82-4.21-2.82-7.62V631.51h3.72v19.91a14.8,14.8,0,0,0,.47,4,6.5,6.5,0,0,0,1.41,2.65,5.46,5.46,0,0,0,2.36,1.46,10.88,10.88,0,0,0,3.3.45q3.63,0,5.2-2t1.57-6.57Z" transform="translate(-305.34 -261.06)"/><path class="cls-1" d="M1444.71,661.6a8.1,8.1,0,0,1-3.41,1.44,22.85,22.85,0,0,1-4.4.4,14.45,14.45,0,0,1-5.29-1,11.75,11.75,0,0,1-4.31-2.94,14.16,14.16,0,0,1-2.91-5,22,22,0,0,1-1.08-7.29,20.77,20.77,0,0,1,1.19-7.46,14.25,14.25,0,0,1,3.14-5,12,12,0,0,1,4.37-2.84,14.1,14.1,0,0,1,4.94-.9,27.48,27.48,0,0,1,4.39.29,14.41,14.41,0,0,1,2.92.78l-.9,3.32a14.2,14.2,0,0,0-6.15-1.07,10.26,10.26,0,0,0-3.63.67,8.33,8.33,0,0,0-3.2,2.2,10.94,10.94,0,0,0-2.27,4,18.61,18.61,0,0,0-.85,6.05,18.19,18.19,0,0,0,.8,5.66,11.5,11.5,0,0,0,2.23,4,8.89,8.89,0,0,0,3.31,2.42,10.55,10.55,0,0,0,4.15.81,13.59,13.59,0,0,0,3.52-.4,9.67,9.67,0,0,0,2.54-1Z" transform="translate(-305.34 -261.06)"/><path class="cls-1" d="M1469.24,634.83h-9.78V662.9h-3.72V634.83H1446v-3.32h23.28Z" transform="translate(-305.34 -261.06)"/><path class="cls-1" d="M1470.41,647.2q0-7.85,3.31-12t9.47-4.19a13.24,13.24,0,0,1,5.74,1.16,10.81,10.81,0,0,1,4,3.3,14.5,14.5,0,0,1,2.36,5.11,26.85,26.85,0,0,1,.76,6.66q0,7.86-3.34,12t-9.53,4.19a12.82,12.82,0,0,1-5.68-1.17,10.71,10.71,0,0,1-4-3.29,14.46,14.46,0,0,1-2.35-5.12A26.74,26.74,0,0,1,1470.41,647.2Zm3.94,0a22.47,22.47,0,0,0,.52,4.94,13.28,13.28,0,0,0,1.59,4.1,8.5,8.5,0,0,0,2.76,2.83,7.33,7.33,0,0,0,4,1,7.74,7.74,0,0,0,6.55-3.16q2.37-3.16,2.37-9.76a23.16,23.16,0,0,0-.51-4.91,13.24,13.24,0,0,0-1.62-4.12,8.65,8.65,0,0,0-2.78-2.83,7.42,7.42,0,0,0-4-1.05,7.63,7.63,0,0,0-6.48,3.16Q1474.36,640.61,1474.35,647.2Z" transform="translate(-305.34 -261.06)"/><path class="cls-1" d="M1502.38,631.82c1.14-.21,2.45-.37,3.93-.49s2.83-.18,4.06-.18a16.64,16.64,0,0,1,3.92.45,9.18,9.18,0,0,1,3.28,1.48,7.45,7.45,0,0,1,2.26,2.69,9.91,9.91,0,0,1-1.16,10,9.81,9.81,0,0,1-5.12,3.05l2.16,1.66,7.8,12.42h-4.35l-8.66-13.54-4.39-.68V662.9h-3.73Zm8.08,2.56h-1.21c-.42,0-.83,0-1.21,0l-1.1.09a4.41,4.41,0,0,0-.83.14v11.57h3.49a8.24,8.24,0,0,0,5.12-1.53,5.58,5.58,0,0,0,2-4.75,5.26,5.26,0,0,0-1.66-4A6.45,6.45,0,0,0,1510.46,634.38Z" transform="translate(-305.34 -261.06)"/><path class="cls-2" d="M401.6,593.49c15.73-4.85,46-6.35,46-13.76,0,0,0,0,0-.05s0,0,0-.06c0-7.41-30.24-8.9-46-13.76s-32.87-13.07-49.34-13.07-23.41,3-32.62,7.86-14.3,11.56-14.3,19v.11c0,7.41,5.09,14.12,14.3,19s16.14,7.86,32.62,7.86S385.88,598.35,401.6,593.49Z" transform="translate(-305.34 -261.06)"/></svg>