<svg id="Layer_1" data-name="Layer 1" xmlns="http://www.w3.org/2000/svg" viewBox="0 0 251.2 251.2"><defs><style>.cls-1{fill:#deb697;}</style></defs><path class="cls-1" d="M960,414.9a125.6,125.6,0,1,0,125.6,125.6A125.6,125.6,0,0,0,960,414.9ZM1017.78,597a8.08,8.08,0,0,1-11.22,2.26,101.47,101.47,0,0,0-35.31-14.34,152.68,152.68,0,0,0-35.48-3,182.3,182.3,0,0,0-38.37,4.95,8.09,8.09,0,0,1-4.24-15.62,194,194,0,0,1,41.78-5.51A169.5,169.5,0,0,1,974.36,569a117.63,117.63,0,0,1,41.16,16.75A8.08,8.08,0,0,1,1017.78,597Zm15.58-34.4a9.7,9.7,0,0,1-8.26,4.58,9.59,9.59,0,0,1-5.12-1.47A139.81,139.81,0,0,0,976.13,548a166,166,0,0,0-40.29-3.66c-24,.66-41,6-41.15,6a9.72,9.72,0,0,1-5.92-18.51c.78-.25,19.28-6.1,45.85-6.92a185.87,185.87,0,0,1,45.28,4,159.1,159.1,0,0,1,50.35,20.26A9.72,9.72,0,0,1,1033.36,562.57Zm6.75-34.74a12.09,12.09,0,0,1-6-1.61,158.25,158.25,0,0,0-49.18-17.77,216.61,216.61,0,0,0-47-3.54c-28.38.82-49,6.39-49.24,6.45a12.15,12.15,0,0,1-6.45-23.42c.93-.25,23.16-6.3,54.29-7.28a242,242,0,0,1,52.58,3.86,182.71,182.71,0,0,1,57.11,20.63,12.15,12.15,0,0,1-6.06,22.68Z" transform="translate(-834.4 -414.9)"/></svg>